<svg width="33" height="33" viewBox="0 0 33 33" fill="none" xmlns="http://www.w3.org/2000/svg">
<path d="M16.8123 0.270752C7.96743 0.270752 0.796265 7.44192 0.796265 16.2868C0.796265 25.1316 7.96743 32.3028 16.8123 32.3028C25.6571 32.3028 32.8283 25.1316 32.8283 16.2868C32.8283 7.44192 25.6571 0.270752 16.8123 0.270752ZM18.1469 24.1039V26.9641H15.4776V24.1119C12.6348 23.7329 10.845 22.0792 10.7449 19.6288H13.7892C13.9347 20.8486 15.1653 21.6308 16.9377 21.6308C18.5754 21.6308 19.7325 20.838 19.7325 19.7022C19.7325 18.7425 18.9824 18.19 17.1366 17.7936L15.176 17.3772C12.4332 16.8033 11.0892 15.3752 11.0892 13.0809C11.0892 10.6384 12.7896 8.92206 15.4776 8.49096V5.60942H18.1469V8.48696C20.7575 8.91005 22.5193 10.6011 22.6007 12.914H19.6391C19.4936 11.7249 18.3872 10.9334 16.8657 10.9334C15.2907 10.9334 14.2484 11.6635 14.2484 12.8099C14.2484 13.7375 14.9678 14.2701 16.7295 14.6451L18.5433 15.0308C21.5677 15.6675 22.8703 16.9701 22.8703 19.3058C22.8717 21.9511 21.1019 23.6995 18.1469 24.1039Z" fill="#5F5F5F"/>
</svg>
