<svg width="34" height="33" viewBox="0 0 34 33" fill="none" xmlns="http://www.w3.org/2000/svg">
<path d="M33.6104 29.7941L31.0354 22.7558C31.8374 20.8589 32.2804 18.7718 32.2804 16.5821C32.2816 7.81462 25.1745 0.70752 16.4058 0.70752C7.63826 0.70752 0.529907 7.81462 0.529907 16.5834C0.529907 25.3521 7.63701 32.4592 16.4058 32.4592C20.167 32.4592 23.618 31.1442 26.3382 28.9595L32.1415 31.2318C33.4228 31.7348 34.0847 31.0866 33.6104 29.7941ZM8.50788 18.6154C7.3855 18.6154 6.4746 17.7045 6.4746 16.5821C6.4746 15.4598 7.3855 14.5488 8.50788 14.5488C9.63025 14.5488 10.5412 15.4598 10.5412 16.5821C10.5412 17.7045 9.63025 18.6154 8.50788 18.6154ZM16.0154 18.6154C14.893 18.6154 13.9821 17.7045 13.9821 16.5821C13.9821 15.4598 14.893 14.5488 16.0154 14.5488C17.1377 14.5488 18.0487 15.4598 18.0487 16.5821C18.0487 17.7045 17.1377 18.6154 16.0154 18.6154ZM23.5229 18.6154C22.4005 18.6154 21.4896 17.7045 21.4896 16.5821C21.4896 15.4598 22.4005 14.5488 23.5229 14.5488C24.6452 14.5488 25.5562 15.4598 25.5562 16.5821C25.5562 17.7045 24.6452 18.6154 23.5229 18.6154Z" fill="#5F5F5F"/>
</svg>
