<svg width="33" height="33" viewBox="0 0 33 33" fill="none" xmlns="http://www.w3.org/2000/svg">
<path d="M16.5833 0.826294C7.79956 0.826294 0.65332 7.97254 0.65332 16.7563C0.65332 25.5407 7.79956 32.6876 16.5833 32.6876C25.3671 32.6876 32.5134 25.5407 32.5134 16.7563C32.514 7.97254 25.3678 0.826294 16.5833 0.826294ZM25.3851 15.5917L20.7734 18.929L22.5496 24.3575C22.5778 24.4422 22.5925 24.5327 22.5925 24.6251C22.5925 25.0993 22.2088 25.4843 21.7346 25.4843C21.546 25.4843 21.3727 25.4239 21.2316 25.3219L16.584 21.9602L11.9364 25.3219C11.7952 25.4239 11.622 25.4843 11.434 25.4843C10.9591 25.4843 10.5748 25.0999 10.5748 24.6251C10.5748 24.532 10.5902 24.4422 10.6184 24.3575L12.3952 18.929L7.78352 15.5923C7.56792 15.437 7.42804 15.1829 7.42804 14.8968C7.42804 14.4226 7.81175 14.0389 8.28659 14.0389H13.9955L15.7633 8.63538C15.8711 8.28439 16.1977 8.029 16.5846 8.029C16.9709 8.029 17.2982 8.28439 17.4053 8.63538L19.1731 14.0389H24.882C25.3562 14.0389 25.7406 14.4226 25.7406 14.8968C25.7399 15.1829 25.6 15.4364 25.3851 15.5917Z" fill="#5F5F5F"/>
</svg>
